HIERARCHY
ROOT Hips
{
	OFFSET 0.000000 0.000000 0.000000 
	CHANNELS 6 Xposition Yposition Zposition Zrotation Yrotation Xrotation
	JOINT LeftUpLeg
	{
		OFFSET 1.363060 -1.794630 0.839290 
		CHANNELS 3 Zrotation Yrotation Xrotation
		JOINT LeftLeg
		{
			OFFSET 2.448110 -6.726130 0.000000 
			CHANNELS 3 Zrotation Yrotation Xrotation
			JOINT LeftFoot
			{
				OFFSET 2.562200 -7.039590 0.000000 
				CHANNELS 3 Zrotation Yrotation Xrotation
				JOINT LeftToeBase
				{
					OFFSET 0.157640 -0.433110 2.322550 
					CHANNELS 3 Zrotation Yrotation Xrotation
					End Site
					{
						OFFSET 0.000000 0.000000 0.000000 
					}
				}
			}
		}
	}
	JOINT RightUpLeg
	{
		OFFSET -1.305520 -1.794630 0.839290 
		CHANNELS 3 Zrotation Yrotation Xrotation
		JOINT RightLeg
		{
			OFFSET -2.542530 -6.985550 0.000000 
			CHANNELS 3 Zrotation Yrotation Xrotation
			JOINT RightFoot
			{
				OFFSET -2.568260 -7.056230 0.000000 
				CHANNELS 3 Zrotation Yrotation Xrotation
				JOINT RightToeBase
				{
					OFFSET -0.164730 -0.452590 2.363150 
					CHANNELS 3 Zrotation Yrotation Xrotation
					End Site
					{
						OFFSET 0.000000 0.000000 0.000000 
					}
				}
			}
		}
	}
	JOINT Spine
	{
		OFFSET 0.028270 2.035590 -0.193380 
		CHANNELS 3 Zrotation Yrotation Xrotation
		JOINT Spine1
		{
			OFFSET 0.056720 2.048850 -0.042750 
			CHANNELS 3 Zrotation Yrotation Xrotation
			JOINT Neck1
			{
				OFFSET -0.054170 1.746240 0.172020 
				CHANNELS 3 Zrotation Yrotation Xrotation
				JOINT Head
				{
					OFFSET 0.104070 1.761360 -0.123970 
					CHANNELS 3 Zrotation Yrotation Xrotation
					End Site
					{
						OFFSET 0.000000 0.000000 0.000000 
					}
				}
			}
			JOINT LeftArm
			{
				OFFSET 3.362410 1.200890 -0.311210 
				CHANNELS 3 Zrotation Yrotation Xrotation
				JOINT LeftForeArm
				{
					OFFSET 4.983000 -0.000000 -0.000000 
					CHANNELS 3 Zrotation Yrotation Xrotation
					JOINT LeftHand
					{
						OFFSET 3.483560 -0.000000 -0.000000 
						CHANNELS 3 Zrotation Yrotation Xrotation
						JOINT LeftHandIndex1
						{
							OFFSET 0.715260 -0.000000 -0.000000 
							CHANNELS 3 Zrotation Yrotation Xrotation
							End Site
							{
								OFFSET 0.000000 0.000000 0.000000 
							}
						}
					}
				}
			}
			JOINT RightArm
			{
				OFFSET -3.136600 1.374050 -0.404650 
				CHANNELS 3 Zrotation Yrotation Xrotation
				JOINT RightForeArm
				{
					OFFSET -5.241900 -0.000000 -0.000000 
					CHANNELS 3 Zrotation Yrotation Xrotation
					JOINT RightHand
					{
						OFFSET -3.444170 -0.000000 -0.000000 
						CHANNELS 3 Zrotation Yrotation Xrotation
						JOINT RightHandIndex1
						{
							OFFSET -0.622530 -0.000000 -0.000000 
							CHANNELS 3 Zrotation Yrotation Xrotation
							End Site
							{
								OFFSET 0.000000 0.000000 0.000000 
							}
						}
					}
				}
			}
		}
	}
}
MOTION
Frames: 17
Frame Time: 0.041667
1.670583 18.047534 2.211210 -111.204334 87.266290 -104.684881 -5.705631 -5.468100 -29.105116 3.420024 13.122114 38.334377 3.426383 -6.663178 10.764877 1.615400 8.014300 22.757600 15.155925 4.524850 -2.559611 0.872161 -6.333863 14.334165 2.712361 -11.611202 -1.365499 -0.002400 -0.316300 0.869200 -0.063140 3.485697 -1.550576 0.778464 2.322950 5.648716 6.712501 -2.140218 6.594988 -1.214400 -0.741800 3.083900 -72.984604 -0.896802 4.693746 -1.449880 -4.557337 -0.352653 -1.817851 -3.434423 4.724417 -7.125000 0.000000 0.000000 65.539545 9.842997 22.669379 -13.029612 20.076784 -4.368872 1.072820 -3.157643 0.969758 7.125000 0.000000 0.000000 
1.817469 18.049651 2.209984 -111.094774 87.288189 -104.483713 -5.476792 -5.371522 -29.276610 2.731378 12.316479 35.607339 3.584729 -6.781717 11.852590 1.583700 7.939000 22.529100 15.174869 4.135550 -1.817810 0.967732 -5.925737 13.122045 2.655553 -11.544155 -0.988406 -0.000800 -0.178600 0.490800 -0.068881 3.441151 -1.452897 0.766979 2.291822 6.049263 6.746757 -2.105894 6.564345 -1.152600 -0.731100 3.265700 -72.795002 -1.141547 4.387759 -1.501759 -4.472444 -0.357187 -1.837863 -3.461464 4.398284 -7.125000 0.000000 0.000000 65.307786 10.627001 22.979771 -13.305085 20.355045 -4.503696 1.062339 -3.175477 0.746891 7.125000 0.000000 0.000000 
1.964690 18.041739 2.212324 -108.733266 87.329669 -101.982963 -5.253957 -5.151440 -29.452538 2.108877 11.492303 32.945653 3.647763 -6.536204 12.701449 1.320400 7.277700 20.540900 15.158707 3.859323 -1.088860 1.055897 -5.493335 11.849546 2.516718 -11.241260 -0.583343 -0.002500 -0.322600 0.886300 -0.114383 3.522991 -1.489101 0.699774 2.329120 5.967777 6.721773 -1.940358 6.452556 -1.162700 -0.657700 3.181200 -72.399609 -0.836923 4.241841 -1.634965 -4.282539 -0.343274 -1.814058 -3.500955 4.030552 -7.125000 0.000000 0.000000 65.414965 10.717090 23.122998 -13.583657 20.680363 -4.644631 1.033355 -3.188581 0.531681 7.125000 0.000000 0.000000 
2.115923 18.032934 2.214665 -108.098141 87.247218 -101.233344 -4.944256 -4.982540 -29.593985 1.548190 10.681717 30.380909 3.702650 -6.258103 13.427121 0.847200 5.870600 16.409400 15.277350 3.688517 -0.176861 1.135951 -5.015745 10.473156 2.381470 -10.944318 -0.285271 -0.010400 -0.659900 1.813400 -0.125323 3.515283 -1.502863 0.679090 2.324558 5.971050 6.708434 -1.791907 6.388555 -1.158400 -0.589500 3.194100 -72.064863 -0.684658 4.023524 -1.804969 -4.008531 -0.317704 -1.794788 -3.458687 3.837770 -7.125000 0.000000 0.000000 65.458041 10.941948 23.239849 -13.821868 20.914399 -4.741456 1.100409 -3.153031 0.408550 7.125000 0.000000 0.000000 
2.269051 18.028365 2.214219 -108.778165 87.294459 -101.856263 -4.728790 -4.951611 -29.703793 1.055673 9.902912 28.002198 3.784576 -6.126912 14.352891 0.538500 4.701700 13.059600 15.291923 3.500471 0.976990 1.213048 -4.395079 8.704362 2.290768 -10.834526 0.291035 -0.019400 -0.899200 2.471400 -0.163212 3.540996 -1.598843 0.686087 2.344654 5.632908 6.715848 -1.914358 6.106535 -1.155000 -0.673100 2.960000 -71.697118 0.135318 3.974653 -1.818519 -4.039976 -0.298081 -1.790336 -3.478225 3.779272 -7.125000 0.000000 0.000000 65.639704 10.590644 23.411746 -14.071423 21.227851 -4.862116 1.091934 -3.140604 0.105106 7.125000 0.000000 0.000000 
2.423850 18.028477 2.212770 -107.628879 87.450949 -100.616713 -4.557044 -4.935546 -29.771972 0.640401 9.177045 25.862183 3.858608 -6.005343 15.424952 0.441300 4.262600 11.816600 15.249550 3.381326 2.614656 1.284771 -3.430320 5.951775 2.201929 -10.893797 1.487003 -0.024100 -1.003200 2.757700 -0.158024 3.461520 -1.484752 0.798783 2.274618 6.117038 6.532955 -1.628754 6.496336 -1.246100 -0.503700 3.386000 -71.601170 -0.198312 3.500278 -1.896120 -3.904435 -0.305732 -1.811856 -3.515563 3.711206 -7.125000 0.000000 0.000000 65.372268 11.409621 23.820367 -14.264403 21.384878 -4.948648 1.136407 -3.143451 -0.229899 7.125000 0.000000 0.000000 
2.578092 18.031151 2.210764 -105.375520 87.342871 -98.285190 -4.171479 -4.944057 -29.849764 0.311932 8.514728 23.993240 4.002023 -6.139528 16.315300 0.364500 3.878200 10.734100 15.530294 3.156626 5.047713 1.267280 -1.827555 1.492712 1.926191 -10.618583 3.308179 -0.037300 -1.246000 3.426000 -0.227629 3.652044 -1.513431 0.617153 2.381525 6.094518 6.103245 -1.612184 6.282015 -1.528500 -0.518000 3.111400 -71.030201 0.265595 3.654859 -1.981507 -3.820876 -0.290663 -1.827230 -3.560027 3.663118 -7.125000 0.000000 0.000000 65.716774 11.219498 23.576822 -14.471167 21.630139 -5.051433 1.169611 -3.133578 -0.319336 7.125000 0.000000 0.000000 
2.729993 18.032154 2.204523 -102.392025 87.178661 -95.209047 -3.702632 -5.071413 -30.013546 0.065528 7.950089 22.444802 4.113795 -6.228154 17.114382 0.070600 1.714200 4.716600 15.718221 3.244748 5.421242 1.268028 -1.845646 1.491230 1.980633 -10.746592 2.957373 -0.023700 -0.993400 2.730600 -0.209065 3.616849 -1.437946 0.592552 2.354218 6.475247 5.891058 -1.290389 6.629779 -1.648800 -0.334100 3.392800 -70.956180 0.060313 3.282120 -1.995386 -3.787326 -0.298370 -1.841263 -3.595734 3.567892 -7.125000 0.000000 0.000000 65.643959 11.874316 23.723733 -14.614451 21.740742 -5.120325 1.181064 -3.143413 -0.475072 7.125000 0.000000 0.000000 
2.884235 18.031374 2.193044 -100.322550 87.087680 -93.078047 -3.220943 -5.646836 -30.006833 -0.088743 7.552967 21.261076 3.891952 -5.310565 16.932721 0.371500 3.915000 10.837700 15.802710 3.280826 5.822099 1.268423 -1.863145 1.486083 2.078568 -11.037571 2.717831 -0.006200 -0.507700 1.395000 -0.230102 3.603019 -1.421363 0.500112 2.352068 6.641863 6.066955 -1.725809 6.025719 -1.488600 -0.602900 3.225200 -70.787527 0.096534 2.975504 -2.057459 -3.674225 -0.293773 -1.847001 -3.619174 3.597960 -7.125000 0.000000 0.000000 65.710215 12.123641 24.056150 -14.803808 21.932116 -5.203005 1.230598 -3.125590 -0.729837 7.125000 0.000000 0.000000 
3.042489 18.032043 2.180116 -99.800312 87.044633 -92.536066 -2.706455 -6.552866 -29.847389 -0.184359 7.291872 20.397394 3.489221 -3.947845 16.395106 0.307500 3.565100 9.856200 15.843845 3.212622 6.253434 1.263636 -1.875334 1.495354 2.106254 -11.075309 2.377794 -0.008300 -0.587000 1.612900 -0.259094 3.544142 -1.451895 0.395929 2.326077 6.633099 6.451820 -1.523866 6.155497 -1.286700 -0.478000 3.304000 -70.554383 0.428337 2.695186 -2.150711 -3.518121 -0.277123 -1.856353 -3.622149 3.788229 -7.125000 0.000000 0.000000 65.882106 11.984815 24.542357 -15.116670 22.291737 -5.338519 1.268968 -3.072768 -1.278608 7.125000 0.000000 0.000000 
3.201746 18.030928 2.169752 -97.923811 86.969783 -90.628219 -2.248924 -7.268405 -29.758981 -0.228836 7.146878 19.811112 2.817201 -1.925328 15.527002 0.313200 3.597700 9.947600 15.901762 3.235669 6.712026 1.255936 -1.887268 1.504832 2.058087 -10.885678 2.098292 -0.022300 -0.964600 2.651300 -0.277384 3.545215 -1.494578 0.352090 2.330805 6.557644 6.352557 -1.568621 5.962126 -1.313500 -0.521400 3.161800 -70.350069 0.853728 2.467511 -2.220251 -3.411173 -0.259653 -1.870849 -3.624319 4.021138 -7.125000 0.000000 0.000000 66.069259 11.779724 24.875612 -15.469195 22.701394 -5.498001 1.234100 -3.016436 -1.815272 7.125000 0.000000 0.000000 
3.355543 18.020007 2.158719 -96.368635 86.844679 -89.038704 -1.967956 -7.517158 -29.856658 -0.244883 7.084373 19.455316 2.090285 0.088471 14.628081 0.269300 3.338000 9.221100 16.050904 3.225011 7.183045 1.249929 -1.898272 1.501177 2.099628 -11.010019 1.931273 -0.006000 -0.499800 1.373300 -0.283679 3.522628 -1.521777 0.270619 2.325120 6.513063 6.082330 -1.510168 5.906312 -1.447100 -0.504800 3.133700 -70.218842 1.028774 2.186148 -2.337030 -3.203822 -0.246757 -1.907676 -3.612854 4.358644 -7.125000 0.000000 0.000000 66.230375 11.729301 25.141741 -15.733673 22.996228 -5.620750 1.209907 -2.983212 -2.145763 7.125000 0.000000 0.000000 
3.502429 18.004961 2.144231 -94.497797 86.730952 -87.073462 -1.865639 -7.396836 -30.102292 -0.247308 7.063519 19.249852 1.415779 1.831497 13.742706 0.192600 2.826100 7.795100 16.159972 3.268244 7.568983 1.247839 -1.909001 1.495325 2.160691 -11.197108 1.781779 -0.000200 0.084400 -0.231800 -0.269634 3.457826 -1.544464 0.248310 2.298678 6.463565 5.777653 -1.314914 5.613568 -1.586600 -0.441600 2.984600 -70.223046 1.078566 1.768248 -2.441812 -2.997959 -0.237945 -1.930846 -3.591462 4.734900 -7.125000 0.000000 0.000000 66.322236 11.787693 25.458933 -15.879830 23.143795 -5.684532 1.224331 -2.967510 -2.294617 7.125000 0.000000 0.000000 
3.651544 17.986796 2.133532 -92.765841 86.586247 -85.326994 -1.710120 -7.320467 -30.125922 -0.245567 7.065615 19.110501 0.759893 3.461916 12.944283 0.180400 2.735900 7.544400 16.317279 3.279050 8.043503 1.239334 -1.918497 1.493213 2.152986 -11.169729 1.645066 -0.000500 0.137400 -0.377500 -0.264258 3.463691 -1.559444 0.224583 2.308679 6.352602 5.241895 -1.349914 5.159173 -1.893800 -0.508100 2.722000 -70.101139 1.130031 1.488018 -2.530203 -2.839413 -0.231635 -1.934821 -3.579594 5.068720 -7.125000 0.000000 0.000000 66.484942 11.748359 25.613244 -16.014930 23.279677 -5.743024 1.243770 -2.948692 -2.365839 7.125000 0.000000 0.000000 
3.804672 17.963392 2.128182 -92.631919 86.609826 -85.247404 -1.746812 -7.188832 -30.046885 -0.245016 7.084211 19.059041 0.316068 4.555140 12.580668 0.167400 2.636200 7.267600 16.372336 3.128754 8.572729 1.225698 -1.926949 1.488808 2.168326 -11.247296 1.661407 -0.004500 0.435500 -1.196500 -0.304283 3.490933 -1.563638 0.158255 2.322555 6.243314 5.086600 -1.471752 4.832094 -2.009100 -0.595500 2.574100 -69.829133 1.134786 1.352044 -2.604800 -2.719016 -0.230462 -1.958480 -3.581675 5.380713 -7.125000 0.000000 0.000000 66.766821 11.629400 25.631521 -16.180849 23.456201 -5.821281 1.262204 -2.932089 -2.519214 7.125000 0.000000 0.000000 
3.958914 17.943777 2.116592 -89.528943 86.726774 -82.080334 -1.825880 -7.243076 -29.911872 -0.227944 7.126563 19.107693 -0.102906 5.600665 12.494221 0.130400 2.327500 6.411700 16.180159 3.205112 9.059853 1.215110 -1.941821 1.484923 2.122258 -11.149034 1.791023 -0.000200 0.087000 -0.239000 -0.344841 3.482754 -1.552175 0.194297 2.302785 6.309405 5.215514 -1.224264 4.733148 -1.903600 -0.478700 2.582200 -69.734919 1.065332 0.986217 -2.668982 -2.592258 -0.230785 -1.993270 -3.580287 5.705851 -7.125000 0.000000 0.000000 66.991018 11.633549 25.798233 -16.286698 23.567540 -5.873913 1.286766 -2.937955 -2.552278 7.125000 0.000000 0.000000 
4.116499 17.924608 2.102215 -85.355128 86.560847 -77.893665 -1.563365 -7.477224 -29.543553 -0.196267 7.183185 19.215553 -0.345343 6.248130 12.634404 0.149000 2.487800 6.855700 16.265489 3.347220 9.670846 1.201917 -1.955345 1.469255 2.080846 -11.088552 1.970860 -0.000100 0.073600 -0.202300 -0.358883 3.500118 -1.508567 0.169789 2.298948 6.527654 5.455837 -1.102289 4.954730 -1.763600 -0.394100 2.821100 -69.636888 0.729274 0.585949 -2.812898 -2.314652 -0.234247 -2.038775 -3.565028 6.024163 -7.125000 0.000000 0.000000 67.197922 11.710812 25.981528 -16.410688 23.694124 -5.928906 1.303408 -2.925153 -2.559670 7.125000 0.000000 0.000000 
